<?xml version="1.0" encoding="iso-8859-1"?>
<!-- Uploaded to: SVG Repo, www.svgrepo.com, Generator: SVG Repo Mixer Tools -->
<svg height="800px" width="800px" version="1.1" id="Layer_1" xmlns="http://www.w3.org/2000/svg" xmlns:xlink="http://www.w3.org/1999/xlink" 
	 viewBox="0 0 512 512" xml:space="preserve">
<path style="fill:#FFFFFF;" d="M416.954,313.972c46.86,0,84.847-37.988,84.847-84.847s-37.988-84.847-84.847-84.847
	c-4.371,0-8.664,0.333-12.857,0.97c-0.033-40.301-32.711-72.961-73.019-72.961c-16.962,0-32.56,5.799-44.956,15.503
	c-18.535-23.826-47.476-39.157-80.001-39.157c-54.25,0-98.539,42.644-101.177,96.24c-3.248-0.377-6.546-0.594-9.896-0.594
	c-46.86,0-84.847,37.988-84.847,84.847s37.988,84.847,84.847,84.847h321.906V313.972z"/>
<g>
	<path style="fill:#3D3D3D;" d="M416.954,324.17H95.046C42.638,324.17,0,281.533,0,229.124s42.638-95.046,95.046-95.046
		c0.228,0,0.458,0.001,0.688,0.003c7.708-54.399,54.346-95.649,110.385-95.649c31.413,0,60.72,12.905,81.797,35.719
		c12.971-7.92,27.715-12.065,43.161-12.065c42.086,0,76.995,31.433,82.472,72.053c1.135-0.041,2.27-0.061,3.405-0.061
		c52.409,0,95.046,42.638,95.046,95.046S469.362,324.17,416.954,324.17z M95.046,154.476c-41.161,0-74.648,33.487-74.648,74.648
		s33.487,74.648,74.648,74.648h321.907c41.161,0,74.648-33.487,74.648-74.648s-33.487-74.648-74.648-74.648
		c-3.79,0-7.6,0.287-11.324,0.853c-2.936,0.445-5.924-0.41-8.178-2.346c-2.254-1.936-3.551-4.758-3.554-7.73
		c-0.028-34.612-28.209-62.77-62.82-62.77c-14.152,0-27.525,4.611-38.67,13.334c-2.135,1.671-4.848,2.421-7.535,2.091
		c-2.69-0.332-5.137-1.722-6.801-3.86c-17.412-22.383-43.637-35.22-71.95-35.22c-48.634,0-88.602,38.013-90.99,86.542
		c-0.139,2.819-1.44,5.456-3.593,7.28c-2.154,1.826-4.969,2.676-7.771,2.35C100.726,154.647,97.874,154.476,95.046,154.476z"/>
	<path style="fill:#3D3D3D;" d="M221.032,291.261H93.504c-5.633,0-10.199-4.566-10.199-10.199s4.566-10.199,10.199-10.199h127.529
		c5.633,0,10.199,4.566,10.199,10.199S226.665,291.261,221.032,291.261z"/>
	<path style="fill:#3D3D3D;" d="M263.2,291.261h-5.142c-5.633,0-10.199-4.566-10.199-10.199s4.566-10.199,10.199-10.199h5.142
		c5.633,0,10.199,4.566,10.199,10.199S268.833,291.261,263.2,291.261z"/>
	<path style="fill:#3D3D3D;" d="M88.362,432.431c-5.633,0-10.199-4.566-10.199-10.199v-6.171c0-5.633,4.566-10.199,10.199-10.199
		c5.633,0,10.199,4.566,10.199,10.199v6.171C98.561,427.865,93.995,432.431,88.362,432.431z"/>
	<path style="fill:#3D3D3D;" d="M136.699,473.568c-5.633,0-10.199-4.566-10.199-10.199v-6.171c0-5.633,4.566-10.199,10.199-10.199
		s10.199,4.566,10.199,10.199v6.171C146.898,469.002,142.332,473.568,136.699,473.568z"/>
	<path style="fill:#3D3D3D;" d="M124.358,378.951c-5.633,0-10.199-4.566-10.199-10.199v-6.171c0-5.633,4.566-10.199,10.199-10.199
		c5.633,0,10.199,4.566,10.199,10.199v6.171C134.557,374.385,129.991,378.951,124.358,378.951z"/>
	<path style="fill:#3D3D3D;" d="M189.15,397.463c-5.633,0-10.199-4.566-10.199-10.199v-6.171c0-5.633,4.566-10.199,10.199-10.199
		s10.199,4.566,10.199,10.199v6.171C199.35,392.897,194.783,397.463,189.15,397.463z"/>
	<path style="fill:#3D3D3D;" d="M221.032,450.943c-5.633,0-10.199-4.566-10.199-10.199v-6.171c0-5.633,4.566-10.199,10.199-10.199
		c5.633,0,10.199,4.566,10.199,10.199v6.171C231.231,446.376,226.665,450.943,221.032,450.943z"/>
	<path style="fill:#3D3D3D;" d="M290.968,445.801c-5.633,0-10.199-4.566-10.199-10.199v-6.171c0-5.633,4.566-10.199,10.199-10.199
		s10.199,4.566,10.199,10.199v6.171C301.167,441.235,296.601,445.801,290.968,445.801z"/>
	<path style="fill:#3D3D3D;" d="M266.284,374.837c-5.633,0-10.199-4.566-10.199-10.199v-6.171c0-5.633,4.566-10.199,10.199-10.199
		s10.199,4.566,10.199,10.199v6.171C276.483,370.271,271.917,374.837,266.284,374.837z"/>
	<path style="fill:#3D3D3D;" d="M336.22,393.35c-5.633,0-10.199-4.566-10.199-10.199v-6.171c0-5.633,4.566-10.199,10.199-10.199
		s10.199,4.566,10.199,10.199v6.171C346.419,388.782,341.853,393.35,336.22,393.35z"/>
	<path style="fill:#3D3D3D;" d="M360.903,454.029c-5.633,0-10.199-4.566-10.199-10.199v-6.171c0-5.633,4.566-10.199,10.199-10.199
		s10.199,4.566,10.199,10.199v6.171C371.102,449.463,366.535,454.029,360.903,454.029z"/>
	<path style="fill:#3D3D3D;" d="M416.44,391.292c-5.633,0-10.199-4.566-10.199-10.199v-6.171c0-5.633,4.566-10.199,10.199-10.199
		s10.199,4.566,10.199,10.199v6.171C426.639,386.726,422.073,391.292,416.44,391.292z"/>
</g>
</svg>